<svg width="27" height="15" viewBox="0 0 27 15" fill="none" xmlns="http://www.w3.org/2000/svg">
<path d="M14.8239 7.45137C18.0787 7.42511 21.3335 7.40406 24.5883 7.36858C25.237 7.36137 25.8867 7.31062 26.5328 7.24735C26.6397 7.23577 26.7406 7.19231 26.8223 7.12268C26.904 7.05304 26.9628 6.96046 26.9908 6.85704C27.0439 6.69145 26.8594 6.45657 26.6391 6.42203C26.4254 6.38856 26.2128 6.33663 25.9981 6.32374C24.6266 6.24095 23.2554 6.12375 21.8826 6.09903C19.0624 6.04853 16.2414 6.03575 13.4205 6.03256C10.7443 6.02948 8.06795 6.06272 5.39172 6.06898C4.962 6.07005 4.53204 6.01611 4.10303 5.97791C4.07457 5.97092 4.04832 5.9569 4.02671 5.93717C4.0051 5.91743 3.98881 5.89261 3.97934 5.86496C3.97163 5.79897 3.99122 5.68755 4.03526 5.66389C4.85766 5.21847 5.66997 4.74987 6.51563 4.35235C8.48295 3.42757 10.3285 2.29357 12.1727 1.15577C12.4758 0.968781 12.7934 0.778836 12.9157 0.407811C12.9379 0.340277 12.9725 0.224606 12.9443 0.202016C12.8431 0.108036 12.7202 0.0404542 12.5864 0.0053167C12.4439 -0.0114238 12.2996 0.0115495 12.1695 0.0716724C11.7087 0.279716 11.2512 0.496753 10.8028 0.729989C7.59776 2.39694 4.39922 4.07383 1.19248 5.73628C-0.0171349 6.36313 -0.591917 6.97106 0.860099 8.34931C1.27842 8.74659 1.70161 9.14327 2.15649 9.49656C4.26614 11.1366 6.38351 12.7667 8.50859 14.3867C8.80076 14.5956 9.10887 14.7815 9.43011 14.9426C9.63963 15.0559 9.84937 14.9886 10.0303 14.8528C10.2293 14.7032 10.3529 14.2683 10.2843 14.0771C10.1318 13.6525 9.82789 13.3409 9.50156 13.0588C8.24502 11.9729 6.98179 10.8947 5.71187 9.82429C4.88663 9.12482 4.0527 8.43564 3.22876 7.73475C3.18805 7.7001 3.18603 7.59283 3.20253 7.52825C3.21336 7.5003 3.23083 7.47539 3.25345 7.45565C3.27607 7.43592 3.30317 7.42195 3.3324 7.41494C3.76295 7.38679 4.19444 7.35096 4.62546 7.3532C8.02505 7.3711 11.4246 7.39341 14.8242 7.42014L14.8239 7.45137Z" fill="black"/>
</svg>
