<svg width="24" height="24" viewBox="0 0 24 24" fill="none" xmlns="http://www.w3.org/2000/svg">
<path d="M23.8333 14.3203C23.7501 12.2933 23.6658 10.5231 23.5752 8.9088C23.5132 7.80172 23.4246 6.34481 23.2895 4.89358C23.093 2.77596 21.4192 1.24333 19.219 1.16647C17.5904 1.10939 15.9333 1.08552 14.3301 1.06246C13.873 1.05596 13.4088 1.06 12.9597 1.06388C12.2231 1.07018 11.4613 1.07684 10.7159 1.03662C9.02288 0.946003 7.22763 1.02177 4.89687 1.28393C3.38059 1.4545 2.23973 1.90812 1.30563 2.71155C0.535828 3.37369 0.160593 4.14161 0.158688 5.05941C0.158022 5.35481 0.1522 5.65443 0.141343 5.94963C0.131819 6.20956 0.114208 6.47505 0.0973511 6.73197C0.0496382 7.28179 0.0369226 7.83421 0.0592651 8.38569C0.0735508 8.61558 0.0881502 8.84549 0.103071 9.07538C0.21869 10.8766 0.3384 12.7388 0.217352 14.5769C0.167257 15.335 0.180981 16.1082 0.194123 16.8552L0.197077 17.0207C0.219267 18.3032 0.403552 19.4305 0.7606 20.4668C1.14574 21.585 1.89345 22.2651 2.98307 22.4878C3.65723 22.6305 4.34142 22.7186 5.02924 22.7513C6.30944 22.8045 7.61155 22.8342 8.87088 22.8628C9.38288 22.8745 9.89489 22.8866 10.4068 22.8992H10.4086C10.4257 22.8989 10.4423 22.8933 10.4562 22.883H10.8617C11.1999 22.883 11.5384 22.883 11.877 22.883L12.4141 22.8839C14.5348 22.8884 16.727 22.8926 18.8677 22.5513C19.614 22.4322 20.486 22.266 21.294 21.9355C22.9152 21.2724 23.79 20.0499 23.894 18.3018C23.9607 17.1781 23.9105 16.0472 23.8615 14.9534C23.8517 14.7423 23.8423 14.5314 23.8333 14.3203ZM1.59449 13.095C1.56783 11.9218 1.50974 10.6599 1.41155 9.12412C1.33393 7.91131 1.28668 6.31234 1.6144 4.69171C1.62203 4.66958 1.62528 4.64613 1.62393 4.62271C1.54831 3.71238 2.18688 3.35584 2.86298 2.97835L2.88639 2.96539C3.5422 2.59904 4.2686 2.47109 4.95631 2.37253C6.52163 2.16301 8.0995 2.06585 9.67823 2.08178C10.336 2.08178 10.9848 2.09292 11.6211 2.10649C12.778 2.1313 13.9544 2.14738 15.0918 2.16289C16.0846 2.17646 17.1109 2.19054 18.1204 2.21031C18.5882 2.2161 19.0551 2.25671 19.5171 2.33183C21.1777 2.61338 22.0962 3.71222 22.1732 5.50944C22.2363 6.9847 22.2944 8.48476 22.3505 9.93589C22.3928 11.0253 22.4357 12.1147 22.4796 13.2041C22.4957 13.5969 22.5177 13.9958 22.539 14.3815C22.5725 14.9873 22.6072 15.6135 22.6194 16.2291C22.6339 16.958 22.5942 17.7031 22.5527 18.4038C22.4917 19.4253 21.9076 20.151 20.8168 20.5606C20.1487 20.7993 19.4582 20.9671 18.7562 21.0613C16.3918 21.4199 13.965 21.4039 11.6185 21.3887L11.3085 21.3865C11.1868 21.3858 11.0652 21.3865 10.9435 21.3865H10.7702C10.7549 21.3865 10.7398 21.3902 10.7261 21.3973C10.7125 21.4043 10.7006 21.4144 10.6916 21.427C10.1773 21.4136 9.66299 21.4007 9.14869 21.3883C7.64726 21.3508 6.09469 21.3119 4.56841 21.2609C4.17516 21.2367 3.78435 21.1818 3.39945 21.0962L3.32907 21.0824C2.68393 20.9564 2.2522 20.5511 2.0461 19.8767C1.73308 18.8225 1.57651 17.7266 1.58154 16.6253C1.57811 16.1219 1.58517 15.6095 1.59193 15.1135C1.60003 14.4514 1.60954 13.7679 1.59449 13.0947V13.095Z" fill="black"/>
<path d="M6.87518 14.3917C7.13931 14.6364 7.40321 14.8813 7.6669 15.1263C8.66119 16.0493 9.68939 17.0037 10.713 17.9286C10.9083 18.1165 11.165 18.2238 11.4337 18.2297C11.711 18.2229 11.9756 18.1098 12.1747 17.9132C12.4603 17.6525 12.707 17.3506 12.9068 17.0172C13.6726 15.7112 14.4277 14.3696 15.158 13.0721L15.2571 12.896C15.3023 12.8038 15.3304 12.7039 15.34 12.6013C15.3463 12.5608 15.3523 12.5201 15.3612 12.4812C15.3656 12.4619 15.3643 12.4416 15.3573 12.4231C15.3503 12.4045 15.3382 12.3884 15.3222 12.377L15.2152 12.3006C15.1992 12.2892 15.1802 12.2829 15.1605 12.2825C15.141 12.2822 15.1218 12.2878 15.1054 12.2987C15.0633 12.3267 15.0197 12.3528 14.9757 12.379C14.8712 12.4365 14.7733 12.5057 14.6838 12.5851C13.8662 13.3584 13.1439 14.2301 12.5329 15.1808C12.4703 15.2791 12.4023 15.3774 12.3363 15.4724C12.3363 15.3943 12.3363 15.3161 12.3363 15.238L12.3319 13.6229C12.3255 11.2295 12.3183 8.83603 12.3101 6.44264C12.3085 6.23937 12.2914 6.03645 12.2589 5.83588C12.2518 5.76226 12.23 5.6909 12.195 5.62606C12.1601 5.5612 12.1125 5.50422 12.0554 5.45853C12.0176 5.43346 11.975 5.41693 11.9304 5.40998C11.8859 5.40302 11.8403 5.40581 11.7969 5.41821C11.6356 5.4593 11.5112 5.63574 11.4005 5.82017C11.355 5.91473 11.3353 6.01995 11.3434 6.12492C11.3434 6.15264 11.3429 6.18005 11.3415 6.20641C11.323 6.53936 11.3036 6.87208 11.2833 7.20463C11.2357 7.99934 11.1868 8.82047 11.1595 9.62972C11.1098 11.1134 11.0705 12.6223 11.0327 14.0813C11.0145 14.7827 10.996 15.4841 10.9769 16.1853C10.9745 16.2379 10.9694 16.2903 10.9616 16.3424C10.9601 16.3411 10.9584 16.34 10.9568 16.3388C10.8765 16.2794 10.8131 16.2322 10.7528 16.1805C10.3239 15.8123 9.8953 15.4441 9.4671 15.0758C8.88843 14.5782 8.30944 14.0808 7.73015 13.5837C7.70158 13.5591 7.67254 13.5327 7.64339 13.5061C7.53747 13.3901 7.40452 13.3031 7.25681 13.2532C7.15293 13.2284 7.04524 13.2247 6.93994 13.2422C6.83463 13.2598 6.73377 13.2983 6.64309 13.3556C6.43271 13.5165 6.41853 13.7982 6.60681 14.0737C6.6844 14.1895 6.7744 14.2961 6.87518 14.3917Z" fill="black"/>
</svg>
