<svg width="27" height="16" viewBox="0 0 27 16" fill="none" xmlns="http://www.w3.org/2000/svg">
<path d="M12.1761 7.66425C8.9213 7.63724 5.6665 7.61559 2.41169 7.5791C1.76296 7.57168 1.11328 7.51949 0.467166 7.4544C0.360273 7.44249 0.259369 7.3978 0.17766 7.32617C0.0959508 7.25454 0.0372363 7.15932 0.00919313 7.05294C-0.0438686 6.88263 0.140603 6.64103 0.360921 6.6055C0.574593 6.57108 0.787184 6.51766 1.00192 6.5044C2.37334 6.41925 3.74464 6.2987 5.11736 6.27328C7.93759 6.22133 10.7586 6.20819 13.5795 6.20491C16.2557 6.20174 18.932 6.23605 21.6083 6.24237C22.038 6.24347 22.4679 6.18799 22.897 6.1487C22.9254 6.1415 22.9517 6.12709 22.9733 6.10679C22.9949 6.08649 23.0112 6.06096 23.0206 6.03252C23.0284 5.96464 23.0088 5.85004 22.9647 5.82571C22.1423 5.36756 21.33 4.88557 20.4844 4.4767C18.517 3.5255 16.6715 2.35909 14.8273 1.18879C14.5242 0.99646 14.2066 0.801088 14.0843 0.419464C14.0621 0.35 14.0275 0.231025 14.0557 0.207789C14.1569 0.111099 14.2798 0.0415829 14.4136 0.00546987C14.5561 -0.0117625 14.7004 0.0119087 14.8305 0.0738402C15.2913 0.287706 15.7488 0.510946 16.1972 0.750846C19.4016 2.46542 22.6051 4.1819 25.8075 5.90028C27.0171 6.54504 27.5919 7.17022 26.1399 8.58784C25.7216 8.99647 25.2984 9.40449 24.8435 9.76787C22.7339 11.4548 20.6165 13.1314 18.4914 14.7977C18.1992 15.0126 17.8911 15.2038 17.5699 15.3695C17.3604 15.486 17.1506 15.4169 16.9697 15.2772C16.7706 15.1233 16.6471 14.676 16.7157 14.4792C16.8682 14.0425 17.1721 13.7221 17.4984 13.4319C18.755 12.3149 20.0182 11.2059 21.2881 10.105C22.1134 9.38551 22.9473 8.67664 23.7712 7.95573C23.8119 7.92021 23.814 7.80975 23.7975 7.74333C23.7866 7.71458 23.7692 7.68896 23.7465 7.66866C23.7239 7.64836 23.6968 7.63399 23.6676 7.62678C23.2369 7.59783 22.8055 7.56097 22.3745 7.56328C18.9749 7.58169 15.5753 7.60463 12.1758 7.63213L12.1761 7.66425Z" fill="black"/>
</svg>
